<svg width="151" height="50" viewBox="0 0 151 50" fill="none" xmlns="http://www.w3.org/2000/svg">
<path d="M77.4455 28.8504L67.559 8.54395H62.4255V41.1804H67.559V19.3619L75.544 35.2674H79.3465L87.141 19.3619V41.1804H92.2745V8.54395H87.141L77.4455 28.8504Z" fill="#48FF76"/>
<path d="M107.01 17.6659C103.73 17.6659 101.401 18.8579 99.8325 20.4159C97.551 22.7079 96.981 25.6419 96.981 29.5379C96.981 33.4799 97.551 36.4134 99.8325 38.7054C101.401 40.2634 103.73 41.4554 107.01 41.4554C110.29 41.4554 112.666 40.2634 114.235 38.7054C116.516 36.4134 117.086 33.4799 117.086 29.5379C117.086 25.6419 116.516 22.7079 114.235 20.4159C112.666 18.8574 110.29 17.6659 107.01 17.6659ZM110.575 35.9089C109.672 36.7799 108.436 37.2844 107.01 37.2844C105.584 37.2844 104.396 36.7799 103.493 35.9089C102.019 34.4879 101.829 32.0589 101.829 29.5379C101.829 27.0169 102.02 24.5874 103.493 23.1664C104.396 22.2954 105.584 21.8374 107.01 21.8374C108.436 21.8374 109.672 22.2959 110.575 23.1664C112.048 24.5874 112.238 27.0169 112.238 29.5379C112.238 32.0589 112.048 34.4879 110.575 35.9089Z" fill="#48FF76"/>
<path d="M132.438 17.6659C130.014 17.6659 127.685 18.5369 126.021 20.2789V17.9414H121.268V41.1809H126.116V27.0169C126.116 23.4414 128.398 21.8374 131.107 21.8374C133.816 21.8374 135.955 23.3959 135.955 27.0169V41.1804H140.803V26.3294C140.803 23.7164 140.233 21.5164 138.38 19.7744C136.953 18.4449 134.909 17.6659 132.438 17.6659Z" fill="#48FF76"/>
<path d="M150.738 17.9409H145.89V41.1804H150.738V17.9409Z" fill="#48FF76"/>
<path d="M150.881 9.63045H145.747V14.5809H150.881V9.63045Z" fill="#48FF76"/>
<path fill-rule="evenodd" clip-rule="evenodd" d="M50 50H0V0H50V50ZM44.987 5.013H5.0135V44.9865H44.987V5.013ZM29.057 21.6149L36.1395 28.7384V29.2354L36.14 29.2359V38.5404H31.1265V27.2304H18.8765V38.5304H13.863V27.2304H13.8605V21.6154H13.863V11.4589H18.8765V21.6154H25.6585L25.66 21.6149H29.057Z" fill="#48FF76"/>
</svg>
