<svg width="1646" height="330" viewBox="0 0 1646 330" fill="none" xmlns="http://www.w3.org/2000/svg">
<path d="M297.115 326.69H213.85L198.835 278.46H99.19L83.265 326.69H0L117.845 2.73002H179.27L297.115 326.69ZM177.905 212.03L150.605 125.58L121.485 212.03H177.905Z" fill="white"/>
<path d="M583.001 326.69H513.386L409.646 163.8V326.69H330.021V2.73002H399.636L503.376 165.62V2.73002H583.001V326.69Z" fill="white"/>
<path d="M728.235 326.69H648.61V2.73002H728.235V326.69Z" fill="white"/>
<path d="M1046.89 326.69H977.272L873.532 163.8V326.69H793.907V2.73002H863.522L967.262 165.62V2.73002H1046.89V326.69Z" fill="white"/>
<path d="M1353.65 164.71C1353.65 220.675 1353.65 246.155 1337.72 272.09C1315.43 308.035 1281.3 326.69 1232.62 326.69H1112.5V2.73002H1232.62C1281.3 2.73002 1315.43 21.385 1337.72 57.33C1353.65 83.265 1353.65 108.745 1353.65 164.71ZM1274.02 164.71C1274.02 110.11 1271.75 101.01 1265.38 91.91C1258.1 80.99 1247.18 73.71 1227.16 73.71H1192.12V255.71H1227.16C1247.18 255.71 1258.1 248.43 1265.38 237.51C1271.75 228.41 1274.02 219.765 1274.02 164.71Z" fill="white"/>
<path d="M1645.01 164.71C1645.01 219.31 1645.01 260.715 1611.8 293.93C1588.59 317.135 1561.29 329.42 1521.71 329.42C1482.12 329.42 1454.82 317.135 1431.62 293.93C1398.4 260.715 1398.4 219.31 1398.4 164.71C1398.4 110.11 1398.4 68.705 1431.62 35.49C1454.82 12.285 1482.12 0 1521.71 0C1561.29 0 1588.59 12.285 1611.8 35.49C1645.01 68.705 1645.01 110.11 1645.01 164.71ZM1565.39 164.71C1565.39 105.56 1560.84 94.64 1553.56 85.085C1547.64 77.35 1536.27 70.98 1521.71 70.98C1507.15 70.98 1495.77 77.35 1489.86 85.085C1482.58 94.64 1478.03 105.56 1478.03 164.71C1478.03 223.86 1482.58 234.325 1489.86 243.88C1495.77 251.615 1507.15 258.44 1521.71 258.44C1536.27 258.44 1547.64 251.615 1553.56 243.88C1560.84 234.325 1565.39 223.86 1565.39 164.71Z" fill="white"/>
</svg>
