<svg width="29" height="30" viewBox="0 0 29 30" fill="none" xmlns="http://www.w3.org/2000/svg">
<g clip-path="url(#clip0_2_1098)">
<path d="M14.4775 30.0005C9.77389 30.0005 5.94733 26.042 5.94733 21.1762L5.94733 8.8248C5.94733 3.959 9.77389 0.000485136 14.4775 0.000485958C19.1811 0.00048678 23.0077 3.959 23.0077 8.8248L23.0077 21.1762C23.0077 26.042 19.1811 30.0005 14.4775 30.0005ZM21.2677 8.8248C21.2677 4.95166 18.2215 1.80041 14.4775 1.80041C10.7335 1.80041 7.68726 4.95166 7.68726 8.8248L7.68726 21.1762C7.68726 25.0493 10.7335 28.2006 14.4775 28.2006C18.2215 28.2006 21.2677 25.0493 21.2677 21.1762L21.2677 8.8248Z" fill="white"/>
<path d="M14.4777 24.0327C13.9971 24.0327 13.6077 23.6299 13.6077 23.1328L13.6077 18.9904C13.6077 18.4935 13.9971 18.0905 14.4777 18.0905C14.958 18.0905 15.3477 18.4935 15.3477 18.9904L15.3477 23.1328C15.3477 23.6299 14.9583 24.0327 14.4777 24.0327Z" fill="white"/>
</g>
<defs>
<clipPath id="clip0_2_1098">
<rect width="29" height="30" fill="white" transform="matrix(1 1.74846e-07 1.74846e-07 -1 6.10352e-05 30.0005)"/>
</clipPath>
</defs>
</svg>
