<svg width="182" height="163" viewBox="0 0 182 163" fill="none" xmlns="http://www.w3.org/2000/svg">
<path d="M92.0394 104.761C93.0662 101.37 93.4285 98.7257 94.6334 96.5504C96.8466 92.5405 99.6777 88.8773 102.03 84.9516C106.154 78.0859 109.97 71.034 114.193 64.2284C116.581 60.378 119.115 56.4674 122.315 53.3113C126.069 49.6119 131.36 49.4774 135.06 51.9459C139.146 54.6747 140.557 59.905 138.024 65.2075C136.407 68.6053 134.407 72.0691 131.754 74.6917C123.315 83.0262 114.545 91.0379 105.779 99.0398C103.536 101.086 100.991 102.937 98.3013 104.335C96.9003 105.081 94.8604 104.631 92.0394 104.761Z" fill="#48FF76"/>
<path d="M37.179 99.3529C36.2942 99.6822 35.2206 100.451 34.2815 100.315C33.3129 100.161 32.0324 99.3187 31.6781 98.456C30.8187 96.3555 30.2698 94.1053 29.8566 91.856C27.4489 78.6879 25.0635 65.5062 22.8257 52.3057C22.3893 49.7183 22.2516 46.9335 22.7172 44.3649C23.6041 39.4985 27.8557 35.898 32.2323 35.6553C36.5509 35.4182 40.8847 38.7835 42.3691 43.5855C42.7098 44.6697 42.9981 45.8166 43.0368 46.9477C43.5659 63.4504 42.7209 79.8374 38.6411 95.9421C38.375 97.0373 37.7562 98.0408 37.179 99.3529Z" fill="#48FF76"/>
<path d="M162.01 118.502C160.495 119.543 158.193 121.797 155.43 122.895C145.409 126.895 135.242 130.536 125.103 134.221C123.68 134.738 122.076 134.862 120.545 134.935C118.608 135.046 116.346 134.934 115.925 132.653C115.699 131.449 116.682 129.855 117.471 128.685C118.075 127.794 119.235 127.24 120.198 126.607C129.547 120.511 138.85 114.335 148.309 108.414C150.857 106.823 153.809 105.664 156.736 104.963C159.433 104.326 162.148 105.077 163.739 107.782C165.205 110.29 165.305 112.849 163.893 115.426C163.521 116.119 163.091 116.75 162.01 118.502Z" fill="#48FF76"/>
</svg>
